<svg xmlns="http://www.w3.org/2000/svg" width="352" height="265" viewBox="0 0 352 265">
  <defs>
    <radialGradient id="a" cx="123.4" cy="51.2" r="61.4" fx="123.4" fy="51.2" gradientTransform="matrix(1.04014 0 0 .9614 48.4 48)" gradientUnits="userSpaceOnUse">
      <stop offset="0%" stop-color="#fb0"/>
      <stop offset="60%" stop-color="#f58"/>
      <stop offset="100%" stop-color="#f55"/>
    </radialGradient>
  </defs>
  <path fill="#283343" d="M72 208.1c-8.4 0-15.2-7-15.2-15.6s6.8-15.6 15.2-15.6c8.5 0 15.3 7 15.3 15.6s-6.8 15.6-15.3 15.6zm15.4 2c0 1.4 2.4 5.4 5.4 5.4h2c.7 0 1.3-.6 1.3-1.3v-42.8c0-.7-.6-1.3-1.3-1.3h-6c-.8 0-1.4.6-1.4 1.3v3.5a19.3 19.3 0 0 0-15.4-6.4 24 24 0 1 0 0 48c5.9 0 12.2-2.2 15.4-6.4zm23.1-6.1c4 2.8 8.4 4.1 12.7 4.1 4 0 8.1-2 8.1-5.7 0-4.8-9-5.6-14.7-7.5-5.7-2-10.6-6-10.6-12.4 0-10 8.8-14 17-14 5.3 0 10.7 1.7 14.1 4.2 1.2.9.5 2 .5 2l-3.3 4.7c-.4.5-1.2 1-2 .4-2.2-1.5-4.7-3-9.2-3-5.6 0-8.1 2.4-8.1 5.3 0 3.4 4 4.5 8.5 5.7 8 2.2 16.8 4.8 16.8 14.6 0 8.7-8.1 14.1-17.1 14.1-6.9 0-12.7-2-17.6-5.5-1-1-.3-2-.3-2l3.3-4.7c.7-.9 1.6-.6 2-.3zm75 6c0 1.5 2.5 5.5 5.5 5.5h2c.7 0 1.3-.6 1.3-1.3v-42.8c0-.7-.7-1.3-1.4-1.3h-6c-.7 0-1.3.6-1.4 1.3v3.5a19.3 19.3 0 0 0-15.3-6.4 24 24 0 1 0 0 48c5.8 0 12.2-2.2 15.3-6.4zm-15.3-1.9c-8.4 0-15.3-7-15.3-15.6s6.9-15.6 15.3-15.6 15.3 7 15.3 15.6-6.9 15.6-15.3 15.6zm78 3.5v-22.1c0-12.5-7.8-21-20.3-21-6 0-11 3.5-12.7 6.5 0-3-2.4-4.8-5.4-4.8h-2c-.7 0-1.3.7-1.3 1.4v42.7c0 .8.6 1.3 1.3 1.3h6.5l.2-.1h.1l.2-.2.2-.2.2-.8v-25.2a12.1 12.1 0 0 1 24.3 0V214.3c0 .8.6 1.3 1.4 1.3h6.5l.1-.1h.1l.2-.2.2-.2a1.4 1.4 0 0 0 .2-.8v-2.7zm47-1.5c0 1.4 2.5 5.4 5.5 5.4h2c.7 0 1.3-.6 1.3-1.3v-42.8c0-.7-.6-1.3-1.4-1.3h-6c-.7 0-1.3.6-1.4 1.3v3.5a19.3 19.3 0 0 0-15.3-6.4 24 24 0 1 0 0 48c5.8 0 12.2-2.2 15.3-6.4zm-15.3-2c-8.4 0-15.3-7-15.3-15.6s6.9-15.6 15.3-15.6 15.3 7 15.3 15.6-6.9 15.6-15.3 15.6z"/>
  <path fill="url(#a)" d="M204.1 95.4a21 21 0 1 0 0 42.1 21 21 0 0 0 0-42zm-54.7 0a21 21 0 1 0 0 42.1 21 21 0 0 0 0-42zm48.4-26.3a21 21 0 1 1-42 0 21 21 0 0 1 42 0z" transform="translate(-.4 .4)"/>
</svg>
